<?xml version="1.0" standalone="no"?>
<!DOCTYPE svg PUBLIC "-//W3C//DTD SVG 20010904//EN"
 "http://www.w3.org/TR/2001/REC-SVG-20010904/DTD/svg10.dtd">
<svg version="1.0" xmlns="http://www.w3.org/2000/svg"
 width="248.000000pt" height="248.000000pt" viewBox="0 0 248.000000 248.000000"
 preserveAspectRatio="xMidYMid meet">
<metadata>
Created by potrace 1.14, written by Peter Selinger 2001-2017
</metadata>
<g transform="translate(0.000000,248.000000) scale(0.100000,-0.100000)"
fill="#000000" stroke="none">
<path d="M1310 1869 c-25 -5 -58 -14 -75 -21 -49 -20 -381 -236 -415 -271 -86
-87 -116 -233 -74 -360 15 -46 15 -49 -7 -95 -18 -37 -23 -65 -23 -137 -1 -82
2 -96 31 -156 102 -207 348 -284 541 -170 154 91 342 219 374 255 75 82 103
227 66 335 l-18 54 26 65 c76 191 -29 412 -230 482 -66 24 -134 30 -196 19z"/>
<path d="M425 1464 c-323 -303 -334 -315 -306 -326 7 -3 133 -119 315 -291
l51 -48 54 56 c47 49 53 59 40 69 -18 13 -140 121 -215 189 l-52 48 81 72 c45
40 96 84 112 99 17 14 43 38 59 51 l28 24 -53 57 -54 57 -60 -57z"/>
<path d="M1934 1465 c-27 -30 -49 -56 -49 -58 0 -1 38 -36 85 -77 47 -41 99
-87 115 -102 17 -14 41 -36 54 -47 19 -17 21 -22 10 -33 -8 -8 -71 -64 -141
-125 l-127 -112 54 -58 c54 -57 55 -57 73 -38 10 11 81 79 157 150 76 72 154
145 172 163 l32 33 -71 67 c-39 37 -92 87 -118 112 -107 102 -176 166 -187
173 -6 4 -31 -16 -59 -48z"/>
</g>
</svg>
